<svg width="27" height="28" viewBox="0 0 27 28" fill="none" xmlns="http://www.w3.org/2000/svg">
<path fill-rule="evenodd" clip-rule="evenodd" d="M26.8337 14.0003C26.8337 21.3641 20.8641 27.3337 13.5003 27.3337C11.3674 27.3337 9.35148 26.8328 7.5637 25.9424C7.0886 25.7057 6.54557 25.627 6.03284 25.7642L3.06479 26.5583C1.77634 26.9031 0.597598 25.7243 0.94234 24.4359L1.73648 21.4678C1.87367 20.9551 1.79491 20.4121 1.55827 19.937C0.667813 18.1492 0.166992 16.1332 0.166992 14.0003C0.166992 6.63653 6.13653 0.666992 13.5003 0.666992C20.8641 0.666992 26.8337 6.63653 26.8337 14.0003ZM13.5003 7.66699C14.0526 7.66699 14.5003 8.11471 14.5003 8.66699V19.3337C14.5003 19.8859 14.0526 20.3337 13.5003 20.3337C12.948 20.3337 12.5003 19.8859 12.5003 19.3337V8.66699C12.5003 8.11471 12.948 7.66699 13.5003 7.66699ZM9.16699 11.3337C9.16699 10.7814 8.71928 10.3337 8.16699 10.3337C7.61471 10.3337 7.16699 10.7814 7.16699 11.3337V16.667C7.16699 17.2193 7.61471 17.667 8.16699 17.667C8.71928 17.667 9.16699 17.2193 9.16699 16.667V11.3337ZM18.8337 10.3337C19.3859 10.3337 19.8337 10.7814 19.8337 11.3337V16.667C19.8337 17.2193 19.3859 17.667 18.8337 17.667C18.2814 17.667 17.8337 17.2193 17.8337 16.667V11.3337C17.8337 10.7814 18.2814 10.3337 18.8337 10.3337Z" fill="white"/>
</svg>
